<?xml version="1.0" encoding="UTF-8"?>
<!DOCTYPE svg PUBLIC "-//W3C//DTD SVG 1.1//EN" "http://www.w3.org/Graphics/SVG/1.1/DTD/svg11.dtd">
<svg xmlns="http://www.w3.org/2000/svg" version="1.1" width="200px" height="200px" style="shape-rendering:geometricPrecision; text-rendering:geometricPrecision; image-rendering:optimizeQuality; fill-rule:evenodd; clip-rule:evenodd" xmlns:xlink="http://www.w3.org/1999/xlink">
<g><path style="opacity:0.004" fill="#fefffe" d="M 5.5,-0.5 C 5.83333,-0.5 6.16667,-0.5 6.5,-0.5C 6.31468,0.170143 5.98135,0.170143 5.5,-0.5 Z"/></g>
<g><path style="opacity:0.996" fill="#545454" d="M 37.5,-0.5 C 46.1667,-0.5 54.8333,-0.5 63.5,-0.5C 65.5713,4.71351 67.238,10.0468 68.5,15.5C 67.8501,15.1961 67.1835,14.8627 66.5,14.5C 65.5019,17.2526 63.6685,19.2526 61,20.5C 60.6924,19.6919 60.1924,19.0253 59.5,18.5C 58.549,19.3256 57.549,19.4922 56.5,19C 56.8333,18.6667 57.1667,18.3333 57.5,18C 55.98,16.1153 54.98,13.9486 54.5,11.5C 53.3864,10.2241 52.3864,10.2241 51.5,11.5C 51.1934,37.8654 51.5268,64.1988 52.5,90.5C 51.5093,96.979 51.176,103.646 51.5,110.5C 48.1445,110.091 45.1445,110.758 42.5,112.5C 41.4479,110.744 39.7812,110.077 37.5,110.5C 37.5,108.833 37.5,107.167 37.5,105.5C 38.8333,84.1667 38.8333,62.8333 37.5,41.5C 37.3833,27.3993 37.3833,13.3993 37.5,-0.5 Z"/></g>
<g><path style="opacity:0.999" fill="#525252" d="M 129.5,-0.5 C 138.167,-0.5 146.833,-0.5 155.5,-0.5C 155.17,18.0076 155.503,36.3409 156.5,54.5C 156.5,54.8333 156.5,55.1667 156.5,55.5C 155.778,55.9175 155.278,56.5842 155,57.5C 154.5,75.1635 154.333,92.8302 154.5,110.5C 150.833,110.5 147.167,110.5 143.5,110.5C 142.5,110.5 141.5,110.5 140.5,110.5C 140.5,85.1667 140.5,59.8333 140.5,34.5C 141.794,30.0661 141.794,25.7327 140.5,21.5C 140.925,8.57611 139.592,8.57611 136.5,21.5C 133.866,25.3947 132.199,29.728 131.5,34.5C 128.676,42.3163 125.676,49.9829 122.5,57.5C 121.562,54.9111 121.229,52.4111 121.5,50C 125.619,48.5947 126.786,46.0947 125,42.5C 123.771,44.9468 122.271,45.1135 120.5,43C 121.451,42.2825 121.617,41.4491 121,40.5C 116.836,43.5322 113.67,47.1989 111.5,51.5C 113.498,45.8382 115.498,40.1715 117.5,34.5C 120.111,30.3506 121.444,26.0173 121.5,21.5C 125.132,14.6127 127.798,7.27938 129.5,-0.5 Z M 140.5,21.5 C 139.167,21.5 137.833,21.5 136.5,21.5C 139.592,8.57611 140.925,8.57611 140.5,21.5 Z"/></g>
<g><path style="opacity:0.004" fill="#fefffe" d="M 83.5,0.5 C 84.8333,1.16667 84.8333,1.16667 83.5,0.5 Z"/></g>
<g><path style="opacity:0.004" fill="#fefffe" d="M 116.5,0.5 C 117.833,1.16667 117.833,1.16667 116.5,0.5 Z"/></g>
<g><path style="opacity:0.004" fill="#fefffe" d="M 90.5,1.5 C 91.8333,2.16667 91.8333,2.16667 90.5,1.5 Z"/></g>
<g><path style="opacity:0.004" fill="#fefffe" d="M 124.5,2.5 C 125.833,3.16667 125.833,3.16667 124.5,2.5 Z"/></g>
<g><path style="opacity:0.004" fill="#fefffe" d="M 165.5,4.5 C 166.833,5.16667 166.833,5.16667 165.5,4.5 Z"/></g>
<g><path style="opacity:0.004" fill="#fefffe" d="M 192.5,11.5 C 193.833,12.1667 193.833,12.1667 192.5,11.5 Z"/></g>
<g><path style="opacity:0.004" fill="#fefffe" d="M 24.5,12.5 C 25.8333,13.1667 25.8333,13.1667 24.5,12.5 Z"/></g>
<g><path style="opacity:0.004" fill="#fefffe" d="M 164.5,15.5 C 165.833,16.1667 165.833,16.1667 164.5,15.5 Z"/></g>
<g><path style="opacity:0.004" fill="#fefffe" d="M 76.5,17.5 C 77.8333,18.1667 77.8333,18.1667 76.5,17.5 Z"/></g>
<g><path style="opacity:0.004" fill="#fefffe" d="M 33.5,18.5 C 34.8333,19.1667 34.8333,19.1667 33.5,18.5 Z"/></g>
<g><path style="opacity:0.985" fill="#010101" d="M 71.5,21.5 C 88.1667,21.5 104.833,21.5 121.5,21.5C 121.444,26.0173 120.111,30.3506 117.5,34.5C 114.167,34.5 110.833,34.5 107.5,34.5C 107.5,38.1667 107.5,41.8333 107.5,45.5C 106.699,53.0881 106.199,60.7548 106,68.5C 102.988,76.036 100.488,83.7026 98.5,91.5C 95.6545,91.1913 94.1545,89.5246 94,86.5C 93.8315,69.9949 93.3315,53.6615 92.5,37.5C 92.5,36.5 92.5,35.5 92.5,34.5C 87.1667,34.5 81.8333,34.5 76.5,34.5C 73.8705,30.623 72.2038,26.2897 71.5,21.5 Z"/></g>
<g><path style="opacity:0.004" fill="#fefffe" d="M 170.5,21.5 C 171.833,22.1667 171.833,22.1667 170.5,21.5 Z"/></g>
<g><path style="opacity:1" fill="#0b0b0b" d="M 56.5,21.5 C 58.7478,25.5715 60.4144,29.9048 61.5,34.5C 59.1667,34.5 56.8333,34.5 54.5,34.5C 53.9031,29.706 54.5698,25.3727 56.5,21.5 Z"/></g>
<g><path style="opacity:1" fill="#050505" d="M 136.5,21.5 C 137.833,21.5 139.167,21.5 140.5,21.5C 141.794,25.7327 141.794,30.0661 140.5,34.5C 137.5,34.5 134.5,34.5 131.5,34.5C 132.199,29.728 133.866,25.3947 136.5,21.5 Z"/></g>
<g><path style="opacity:0.004" fill="#fefffe" d="M 15.5,25.5 C 16.8333,26.1667 16.8333,26.1667 15.5,25.5 Z"/></g>
<g><path style="opacity:0.004" fill="#fefffe" d="M 178.5,25.5 C 179.833,26.1667 179.833,26.1667 178.5,25.5 Z"/></g>
<g><path style="opacity:0.004" fill="#fefffe" d="M 8.5,28.5 C 9.83333,29.1667 9.83333,29.1667 8.5,28.5 Z"/></g>
<g><path style="opacity:0.004" fill="#fefffe" d="M 26.5,36.5 C 27.8333,37.1667 27.8333,37.1667 26.5,36.5 Z"/></g>
<g><path style="opacity:0.004" fill="#fefffe" d="M 0.5,38.5 C 1.83333,39.1667 1.83333,39.1667 0.5,38.5 Z"/></g>
<g><path style="opacity:0.004" fill="#fefffe" d="M 0.5,40.5 C 1.83333,41.1667 1.83333,41.1667 0.5,40.5 Z"/></g>
<g><path style="opacity:0.983" fill="#a3a3a3" d="M 35.5,42.5 C 36.7611,49.5013 37.4277,56.668 37.5,64C 37.4996,70.6755 37.1663,77.1755 36.5,83.5C 32.625,70.1351 29.625,56.4684 27.5,42.5C 30.1667,42.5 32.8333,42.5 35.5,42.5 Z"/></g>
<g><path style="opacity:1" fill="#525252" d="M 51.5,11.5 C 52.3864,10.2241 53.3864,10.2241 54.5,11.5C 54.98,13.9486 55.98,16.1153 57.5,18C 57.1667,18.3333 56.8333,18.6667 56.5,19C 57.549,19.4922 58.549,19.3256 59.5,18.5C 60.1924,19.0253 60.6924,19.6919 61,20.5C 63.6685,19.2526 65.5019,17.2526 66.5,14.5C 67.1835,14.8627 67.8501,15.1961 68.5,15.5C 69.8698,17.2504 70.8698,19.2504 71.5,21.5C 72.2038,26.2897 73.8705,30.623 76.5,34.5C 79.8333,44.8333 83.1667,55.1667 86.5,65.5C 88.6214,70.3612 90.4547,75.3612 92,80.5C 92.1667,75.6667 92.3333,70.8333 92.5,66C 92.4937,60.7843 91.8271,55.951 90.5,51.5C 92.2154,47.0335 92.8821,42.3669 92.5,37.5C 93.3315,53.6615 93.8315,69.9949 94,86.5C 94.1545,89.5246 95.6545,91.1913 98.5,91.5C 100.488,83.7026 102.988,76.036 106,68.5C 106.199,60.7548 106.699,53.0881 107.5,45.5C 108.485,48.0571 109.485,50.7237 110.5,53.5C 111.298,53.0431 111.631,52.3764 111.5,51.5C 113.67,47.1989 116.836,43.5322 121,40.5C 121.617,41.4491 121.451,42.2825 120.5,43C 122.271,45.1135 123.771,44.9468 125,42.5C 126.786,46.0947 125.619,48.5947 121.5,50C 121.229,52.4111 121.562,54.9111 122.5,57.5C 120.302,64.096 118.302,70.7627 116.5,77.5C 113.37,82.6626 110.87,88.3292 109,94.5C 108.828,97.8255 108.995,101.159 109.5,104.5C 108.71,103.391 108.21,102.058 108,100.5C 107.51,101.793 107.343,103.127 107.5,104.5C 106.883,104.389 106.383,104.056 106,103.5C 105.069,105.459 104.236,107.459 103.5,109.5C 99.8927,110.489 96.226,110.823 92.5,110.5C 91.0413,110.433 89.7079,110.766 88.5,111.5C 88.5793,108.729 88.0793,106.063 87,103.5C 85.4648,98.3246 83.2981,93.658 80.5,89.5C 74.3678,71.1035 68.0344,52.7702 61.5,34.5C 60.4144,29.9048 58.7478,25.5715 56.5,21.5C 55.4103,18.7328 54.4103,15.8995 53.5,13C 53.1639,11.9701 52.4972,11.4701 51.5,11.5 Z"/></g>
<g><path style="opacity:1" fill="#737373" d="M 37.5,41.5 C 38.8333,62.8333 38.8333,84.1667 37.5,105.5C 37.6831,98.1319 37.3498,90.7985 36.5,83.5C 37.1663,77.1755 37.4996,70.6755 37.5,64C 37.4277,56.668 36.7611,49.5013 35.5,42.5C 36.4916,42.6716 37.1583,42.3382 37.5,41.5 Z"/></g>
<g><path style="opacity:0.997" fill="#999999" d="M 107.5,54.5 C 108.5,54.5 109.5,54.5 110.5,54.5C 108.283,64.8843 107.283,64.8843 107.5,54.5 Z"/></g>
<g><path style="opacity:1" fill="#a1a1a1" d="M 90.5,51.5 C 91.8271,55.951 92.4937,60.7843 92.5,66C 92.3333,70.8333 92.1667,75.6667 92,80.5C 90.4547,75.3612 88.6214,70.3612 86.5,65.5C 88.434,61.1115 89.7673,56.4449 90.5,51.5 Z"/></g>
<g><path style="opacity:1" fill="#818181" d="M 156.5,55.5 C 155.871,73.9739 155.205,92.3072 154.5,110.5C 154.333,92.8302 154.5,75.1635 155,57.5C 155.278,56.5842 155.778,55.9175 156.5,55.5 Z"/></g>
<g><path style="opacity:0.004" fill="#fefffe" d="M 0.5,63.5 C 1.83333,64.1667 1.83333,64.1667 0.5,63.5 Z"/></g>
<g><path style="opacity:0.004" fill="#fefffe" d="M 3.5,67.5 C 4.83333,68.1667 4.83333,68.1667 3.5,67.5 Z"/></g>
<g><path style="opacity:0.004" fill="#fefffe" d="M 178.5,69.5 C 179.833,70.1667 179.833,70.1667 178.5,69.5 Z"/></g>
<g><path style="opacity:0.004" fill="#fefffe" d="M 28.5,71.5 C 29.8333,72.1667 29.8333,72.1667 28.5,71.5 Z"/></g>
<g><path style="opacity:0.004" fill="#fefffe" d="M 169.5,79.5 C 170.833,80.1667 170.833,80.1667 169.5,79.5 Z"/></g>
<g><path style="opacity:0.004" fill="#fefffe" d="M 167.5,85.5 C 168.833,86.1667 168.833,86.1667 167.5,85.5 Z"/></g>
<g><path style="opacity:0.994" fill="#a4a4a4" d="M 80.5,89.5 C 83.2981,93.658 85.4648,98.3246 87,103.5C 88.0793,106.063 88.5793,108.729 88.5,111.5C 84.1956,129.554 79.1956,147.387 73.5,165C 67.2511,165.809 61.0844,165.642 55,164.5C 50.6367,147.176 46.47,129.843 42.5,112.5C 45.1445,110.758 48.1445,110.091 51.5,110.5C 51.176,103.646 51.5093,96.979 52.5,90.5C 56.6007,108.168 60.7674,125.834 65,143.5C 70.7803,125.718 75.9469,107.718 80.5,89.5 Z"/></g>
<g><path style="opacity:0.004" fill="#fefffe" d="M 5.5,94.5 C 6.83333,95.1667 6.83333,95.1667 5.5,94.5 Z"/></g>
<g><path style="opacity:0.004" fill="#fefffe" d="M 184.5,95.5 C 185.833,96.1667 185.833,96.1667 184.5,95.5 Z"/></g>
<g><path style="opacity:0.004" fill="#fefffe" d="M 2.5,99.5 C 3.83333,100.167 3.83333,100.167 2.5,99.5 Z"/></g>
<g><path style="opacity:0.986" fill="#020202" d="M 107.5,104.5 C 107.5,117.5 107.5,130.5 107.5,143.5C 102.5,143.5 97.5,143.5 92.5,143.5C 92.5,132.5 92.5,121.5 92.5,110.5C 96.226,110.823 99.8927,110.489 103.5,109.5C 104.236,107.459 105.069,105.459 106,103.5C 106.383,104.056 106.883,104.389 107.5,104.5 Z"/></g>
<g><path style="opacity:0.999" fill="#a4a4a4" d="M 109.5,104.5 C 108.995,101.159 108.828,97.8255 109,94.5C 110.87,88.3292 113.37,82.6626 116.5,77.5C 122.431,99.1826 128.598,121.183 135,143.5C 137.983,132.569 140.816,121.569 143.5,110.5C 147.167,110.5 150.833,110.5 154.5,110.5C 155.205,92.3072 155.871,73.9739 156.5,55.5C 156.5,55.1667 156.5,54.8333 156.5,54.5C 156.848,50.4432 157.514,46.4432 158.5,42.5C 163.544,42.1725 168.544,42.5059 173.5,43.5C 164.241,83.5553 154.741,123.889 145,164.5C 138.667,165.833 132.333,165.833 126,164.5C 120.184,144.569 114.684,124.569 109.5,104.5 Z"/></g>
<g><path style="opacity:0.004" fill="#fefffe" d="M 40.5,112.5 C 41.8333,113.167 41.8333,113.167 40.5,112.5 Z"/></g>
<g><path style="opacity:0.004" fill="#fefffe" d="M 189.5,112.5 C 190.833,113.167 190.833,113.167 189.5,112.5 Z"/></g>
<g><path style="opacity:0.004" fill="#fefffe" d="M 9.5,114.5 C 10.8333,115.167 10.8333,115.167 9.5,114.5 Z"/></g>
<g><path style="opacity:0.004" fill="#fefffe" d="M 32.5,117.5 C 33.8333,118.167 33.8333,118.167 32.5,117.5 Z"/></g>
<g><path style="opacity:0.004" fill="#fefffe" d="M 186.5,118.5 C 187.833,119.167 187.833,119.167 186.5,118.5 Z"/></g>
<g><path style="opacity:0.004" fill="#fefffe" d="M 14.5,121.5 C 15.8333,122.167 15.8333,122.167 14.5,121.5 Z"/></g>
<g><path style="opacity:0.004" fill="#fefffe" d="M 190.5,121.5 C 191.833,122.167 191.833,122.167 190.5,121.5 Z"/></g>
<g><path style="opacity:0.004" fill="#fefffe" d="M 155.5,125.5 C 156.833,126.167 156.833,126.167 155.5,125.5 Z"/></g>
<g><path style="opacity:0.004" fill="#fefffe" d="M 194.5,133.5 C 195.833,134.167 195.833,134.167 194.5,133.5 Z"/></g>
<g><path style="opacity:0.004" fill="#fefffe" d="M 162.5,134.5 C 163.833,135.167 163.833,135.167 162.5,134.5 Z"/></g>
<g><path style="opacity:0.004" fill="#fefffe" d="M 7.5,135.5 C 8.83333,136.167 8.83333,136.167 7.5,135.5 Z"/></g>
<g><path style="opacity:0.004" fill="#fefffe" d="M 22.5,135.5 C 23.8333,136.167 23.8333,136.167 22.5,135.5 Z"/></g>
<g><path style="opacity:0.004" fill="#fefffe" d="M 182.5,138.5 C 183.833,139.167 183.833,139.167 182.5,138.5 Z"/></g>
<g><path style="opacity:0.004" fill="#fefffe" d="M 188.5,145.5 C 189.833,146.167 189.833,146.167 188.5,145.5 Z"/></g>
<g><path style="opacity:0.004" fill="#fefffe" d="M 102.5,146.5 C 103.833,147.167 103.833,147.167 102.5,146.5 Z"/></g>
<g><path style="opacity:0.004" fill="#fefffe" d="M 80.5,148.5 C 81.8333,149.167 81.8333,149.167 80.5,148.5 Z"/></g>
<g><path style="opacity:0.004" fill="#fefffe" d="M 29.5,150.5 C 30.8333,151.167 30.8333,151.167 29.5,150.5 Z"/></g>
<g><path style="opacity:0.004" fill="#fefffe" d="M 104.5,156.5 C 103.833,155.167 103.833,155.167 104.5,156.5 Z"/></g>
<g><path style="opacity:0.004" fill="#fefffe" d="M 194.5,155.5 C 195.833,156.167 195.833,156.167 194.5,155.5 Z"/></g>
<g><path style="opacity:0.004" fill="#fefffe" d="M 104.5,156.5 C 105.833,157.167 105.833,157.167 104.5,156.5 Z"/></g>
<g><path style="opacity:0.004" fill="#fefffe" d="M 166.5,156.5 C 167.833,157.167 167.833,157.167 166.5,156.5 Z"/></g>
<g><path style="opacity:0.004" fill="#fefffe" d="M 161.5,161.5 C 162.833,162.167 162.833,162.167 161.5,161.5 Z"/></g>
<g><path style="opacity:0.004" fill="#fefffe" d="M 31.5,166.5 C 32.8333,167.167 32.8333,167.167 31.5,166.5 Z"/></g>
<g><path style="opacity:0.004" fill="#fefffe" d="M 37.5,166.5 C 38.8333,167.167 38.8333,167.167 37.5,166.5 Z"/></g>
<g><path style="opacity:0.004" fill="#fefffe" d="M 108.5,166.5 C 109.833,167.167 109.833,167.167 108.5,166.5 Z"/></g>
<g><path style="opacity:0.004" fill="#fefffe" d="M 121.5,169.5 C 122.833,170.167 122.833,170.167 121.5,169.5 Z"/></g>
<g><path style="opacity:0.004" fill="#fe00ff" d="M 50.5,175.5 C 51.8333,176.167 51.8333,176.167 50.5,175.5 Z"/></g>
<g><path style="opacity:0.004" fill="#fefffe" d="M 60.5,175.5 C 61.8333,176.167 61.8333,176.167 60.5,175.5 Z"/></g>
<g><path style="opacity:0.004" fill="#fefffe" d="M 88.5,176.5 C 89.8333,177.167 89.8333,177.167 88.5,176.5 Z"/></g>
<g><path style="opacity:0.004" fill="#fefffe" d="M 115.5,182.5 C 116.833,183.167 116.833,183.167 115.5,182.5 Z"/></g>
<g><path style="opacity:0.004" fill="#fefffe" d="M 77.5,184.5 C 78.8333,185.167 78.8333,185.167 77.5,184.5 Z"/></g>
<g><path style="opacity:0.004" fill="#fefffe" d="M 112.5,184.5 C 113.833,185.167 113.833,185.167 112.5,184.5 Z"/></g>
<g><path style="opacity:0.004" fill="#fefffe" d="M 45.5,187.5 C 46.8333,188.167 46.8333,188.167 45.5,187.5 Z"/></g>
<g><path style="opacity:0.004" fill="#fefffe" d="M 90.5,187.5 C 91.8333,188.167 91.8333,188.167 90.5,187.5 Z"/></g>
<g><path style="opacity:0.004" fill="#fefffe" d="M 92.5,189.5 C 93.8333,190.167 93.8333,190.167 92.5,189.5 Z"/></g>
<g><path style="opacity:0.004" fill="#fefffe" d="M 145.5,190.5 C 146.833,191.167 146.833,191.167 145.5,190.5 Z"/></g>
<g><path style="opacity:0.004" fill="#fefffe" d="M 37.5,192.5 C 38.8333,193.167 38.8333,193.167 37.5,192.5 Z"/></g>
<g><path style="opacity:0.004" fill="#fefffe" d="M 69.5,192.5 C 70.8333,193.167 70.8333,193.167 69.5,192.5 Z"/></g>
<g><path style="opacity:0.004" fill="#fefffe" d="M 80.5,193.5 C 81.8333,194.167 81.8333,194.167 80.5,193.5 Z"/></g>
<g><path style="opacity:0.004" fill="#fefffe" d="M 118.5,195.5 C 119.833,196.167 119.833,196.167 118.5,195.5 Z"/></g>
<g><path style="opacity:0.004" fill="#fefffe" d="M 142.5,195.5 C 143.833,196.167 143.833,196.167 142.5,195.5 Z"/></g>
</svg>
