<?xml version="1.0" encoding="UTF-8"?>
<svg version="1.1" xmlns="http://www.w3.org/2000/svg" width="500" height="500">
<path d="M0 0 C1.41368244 -0.00761181 1.41368244 -0.00761181 2.85592413 -0.0153774 C3.88304841 -0.01587516 4.91017268 -0.01637292 5.96842194 -0.01688576 C7.06608084 -0.02126801 8.16373975 -0.02565027 9.29466105 -0.03016531 C12.98006518 -0.04354094 16.66544541 -0.04972945 20.35086823 -0.0558567 C22.99057952 -0.06375869 25.63028778 -0.07202295 28.26999664 -0.08063698 C36.19684595 -0.10512782 44.12370145 -0.11978363 52.05057693 -0.13269705 C54.29114239 -0.13641152 56.53170725 -0.14038455 58.77227211 -0.14444971 C72.69896451 -0.16968973 86.62565795 -0.19173327 100.55236816 -0.20417786 C103.77621718 -0.20710734 107.00006616 -0.21006903 110.2239151 -0.21308327 C111.02514355 -0.21382932 111.82637199 -0.21457537 112.65188009 -0.21534403 C125.62116564 -0.22798823 138.59031382 -0.26120067 151.55953521 -0.3028851 C164.88825343 -0.34537221 178.21690146 -0.36888072 191.5456872 -0.37409842 C199.0238254 -0.37750495 206.50174892 -0.3891702 213.97982025 -0.42220116 C220.35070589 -0.45029624 226.72133281 -0.46115983 233.09227556 -0.4500057 C236.33863351 -0.44484287 239.58434083 -0.4503147 242.8306427 -0.47247124 C258.90654141 -0.57618359 272.41575454 -0.61372751 285.32938385 10.23467064 C290.73352433 15.7176215 293.3301875 21.27062592 293.32743168 28.95662022 C293.32942273 30.17829842 293.33141378 31.39997662 293.33346516 32.65867537 C293.33061194 34.0215063 293.32766634 35.38433704 293.32463837 36.74716759 C293.3250742 38.18931227 293.32594933 39.63145688 293.32722753 41.07360107 C293.3294701 45.04598235 293.32545443 49.01833681 293.32044947 52.99071467 C293.31614177 57.27086553 293.31759162 61.5510148 293.31835175 65.83116722 C293.31887678 73.24997569 293.31573214 80.66877538 293.31011391 88.08758163 C293.3019961 98.81400651 293.2993834 109.54042713 293.29812592 120.26685474 C293.29593584 137.66864539 293.28927695 155.07043136 293.2798233 172.47221947 C293.27064804 189.37912027 293.26356777 206.2860198 293.25931549 223.19292259 C293.25892141 224.75543252 293.25892141 224.75543252 293.25851936 226.34950831 C293.25721435 231.57513726 293.25595063 236.80076623 293.25470746 242.0263952 C293.24433622 285.39660484 293.22671911 328.76680937 293.20438385 372.13701439 C292.60437026 372.13761148 292.00435667 372.13820857 291.38616085 372.13882375 C255.82103665 372.17472107 220.25600437 372.23136521 184.69095945 372.31493534 C180.42020673 372.32495275 176.14945363 372.33479688 171.87870026 372.34453392 C171.02847353 372.34647529 170.1782468 372.34841667 169.30225563 372.35041687 C155.53719596 372.38143429 141.77215297 372.3984168 128.00706494 372.41020861 C113.88182374 372.42262151 99.75667001 372.45012603 85.63148403 372.49162745 C76.9161249 372.51675891 68.20091082 372.53013193 59.48551494 372.52844396 C53.50827632 372.5284142 47.53118542 372.54304932 41.55400437 372.56917867 C38.10591722 372.58382015 34.65813299 372.59203163 31.21002007 372.58281708 C27.46839635 372.57619486 23.72765682 372.59405753 19.98612213 372.61803246 C18.9005046 372.61027204 17.81488707 372.60251162 16.69637203 372.59451604 C10.48881722 372.66496494 5.27371832 373.28514138 0.20438385 377.13701439 C-2.82542444 381.81944539 -3.225507 385.68719068 -2.36592865 391.05498314 C-1.49880597 394.22057485 -0.23493357 395.96140696 2.20438385 398.13701439 C7.64842883 400.47510661 13.24370315 400.77966138 19.07938385 401.26201439 C20.54118073 401.39156517 20.54118073 401.39156517 22.03250885 401.52373314 C24.42257257 401.73462111 26.81341063 401.93670112 29.20438385 402.13701439 C29.20438385 407.08701439 29.20438385 412.03701439 29.20438385 417.13701439 C24.26062717 417.26170172 19.31780878 417.35185829 14.37284088 417.41167259 C12.69494408 417.4366365 11.01715399 417.47062058 9.33963776 417.51421165 C-2.00425352 417.80135601 -10.32531815 417.50803672 -19.4167099 409.96123314 C-26.94157237 401.10940567 -28.91398417 393.18992122 -28.92704391 381.5508337 C-28.93088506 380.25994038 -28.9347262 378.96904706 -28.93868375 377.63903576 C-28.93790365 376.21881134 -28.93702489 374.79858696 -28.93605804 373.37836266 C-28.9386438 371.86009551 -28.94165755 370.34182905 -28.94506145 368.82356352 C-28.95310951 364.65904128 -28.95491979 360.49453629 -28.95565891 356.3300072 C-28.95751321 351.83572468 -28.96506226 347.34145105 -28.97179413 342.84717369 C-28.9853607 333.02505148 -28.99139908 323.20293336 -28.99580479 313.38080335 C-28.99856911 307.24766914 -29.00280672 301.1145365 -29.00730896 294.98140335 C-29.01949766 277.99855873 -29.02979892 261.01571537 -29.03318405 244.03286648 C-29.03340362 242.94654388 -29.03362318 241.86022128 -29.0338494 240.74097982 C-29.03417682 239.10762909 -29.03417682 239.10762909 -29.03451085 237.44128138 C-29.03495432 235.2347972 -29.03540088 233.02831302 -29.03585052 230.82182884 C-29.03607195 229.7273396 -29.03629338 228.63285036 -29.03652152 227.50519478 C-29.04047174 209.76041025 -29.05793436 192.01566673 -29.08121005 174.27089805 C-29.10491697 156.05031623 -29.11738554 137.829755 -29.11855197 119.6091575 C-29.11946891 109.37974814 -29.12522635 99.15039226 -29.14337158 88.92099762 C-29.15876341 80.21329536 -29.16389831 71.50566313 -29.15563348 62.79794986 C-29.15172421 58.35544778 -29.1526702 53.91308679 -29.16669083 49.47060204 C-29.17941249 45.40253376 -29.17824756 41.33471285 -29.16610011 37.26664501 C-29.16414015 35.79632897 -29.16723538 34.32599551 -29.17594448 32.85570396 C-29.2281997 23.43630374 -29.16260017 14.93828314 -22.51436615 7.51982689 C-16.17509417 2.41959443 -8.0330173 0.02307807 0 0 Z " fill="#F8F8F8" transform="translate(117.79561614990234,18.862985610961914)"/>
<path d="M0 0 C19.14 0 38.28 0 58 0 C58 3.96 58 7.92 58 12 C69.55 12 81.1 12 93 12 C93 23.55 93 35.1 93 47 C96.96 47 100.92 47 105 47 C105 66.47 105 85.94 105 106 C101.37 106 97.74 106 94 106 C94 109.63 94 113.26 94 117 C90.04 117 86.08 117 82 117 C82 113.04 82 109.08 82 105 C78.04 105 74.08 105 70 105 C70 89.82 70 74.64 70 59 C66.04 59 62.08 59 58 59 C58 62.63 58 66.26 58 70 C54.04 70 50.08 70 46 70 C46 73.96 46 77.92 46 82 C42.37 82 38.74 82 35 82 C35 85.96 35 89.92 35 94 C31.04 94 27.08 94 23 94 C23 97.63 23 101.26 23 105 C19.04 105 15.08 105 11 105 C11 108.96 11 112.92 11 117 C7.04 117 3.08 117 -1 117 C-1 120.96 -1 124.92 -1 129 C-4.63 129 -8.26 129 -12 129 C-12 132.63 -12 136.26 -12 140 C-15.96 140 -19.92 140 -24 140 C-24 143.96 -24 147.92 -24 152 C-31.59 152 -39.18 152 -47 152 C-47 144.41 -47 136.82 -47 129 C-43.04 129 -39.08 129 -35 129 C-35 125.04 -35 121.08 -35 117 C-31.37 117 -27.74 117 -24 117 C-24 113.37 -24 109.74 -24 106 C-20.04 106 -16.08 106 -12 106 C-12 102.04 -12 98.08 -12 94 C-8.04 94 -4.08 94 0 94 C0 90.04 0 86.08 0 82 C3.63 82 7.26 82 11 82 C11 78.04 11 74.08 11 70 C14.96 70 18.92 70 23 70 C23 66.37 23 62.74 23 59 C26.96 59 30.92 59 35 59 C35 55.04 35 51.08 35 47 C38.96 47 42.92 47 47 47 C47 43.04 47 39.08 47 35 C31.49 35 15.98 35 0 35 C0 31.04 0 27.08 0 23 C-3.96 23 -7.92 23 -12 23 C-12 19.37 -12 15.74 -12 12 C-8.04 12 -4.08 12 0 12 C0 8.04 0 4.08 0 0 Z " fill="#040404" transform="translate(227,86)"/>
<path d="M0 0 C7.26 0 14.52 0 22 0 C22 12.87 22 25.74 22 39 C24.97 39 27.94 39 31 39 C31 33.72 31 28.44 31 23 C35.95 23 40.9 23 46 23 C46 28.28 46 33.56 46 39 C48.64 39 51.28 39 54 39 C54 26.13 54 13.26 54 0 C61.59 0 69.18 0 77 0 C77 20.46 77 40.92 77 62 C74.36 62 71.72 62 69 62 C69 66.95 69 71.9 69 77 C61.41 77 53.82 77 46 77 C46 69.41 46 61.82 46 54 C40.72 54 35.44 54 30 54 C30 61.59 30 69.18 30 77 C22.41 77 14.82 77 7 77 C7 71.72 7 66.44 7 61 C4.69 61 2.38 61 0 61 C0 40.87 0 20.74 0 0 Z " fill="#020202" transform="translate(145,282)"/>
<path d="M0 0 C19.14 0 38.28 0 58 0 C58 28.38 58 56.76 58 86 C53.99386638 83.99693319 51.43317117 81.69139834 48.359375 78.5546875 C47.83232971 78.02481232 47.30528442 77.49493713 46.76226807 76.94900513 C45.08674325 75.26232175 43.41832278 73.56880436 41.75 71.875 C40.61244149 70.72740612 39.47442564 69.58026539 38.3359375 68.43359375 C35.55196535 65.62761863 32.7743424 62.81549536 30 60 C26.00021731 61.59731198 23.36720518 64.40990726 20.4296875 67.4453125 C19.90738556 67.97518768 19.38508362 68.50506287 18.84695435 69.05099487 C17.18472687 70.73758962 15.52913075 72.43046594 13.875 74.125 C11.69057595 76.36244099 9.49974593 78.59330926 7.3046875 80.8203125 C6.55153763 81.59835739 6.55153763 81.59835739 5.78317261 82.39212036 C4.55966067 83.63292464 3.28403134 84.82193369 2 86 C1.34 86 0.68 86 0 86 C0 57.62 0 29.24 0 0 Z " fill="#FFFFFF" transform="translate(151,395)"/>
<path d="M0 0 C63.36 0 126.72 0 192 0 C191.67 1.98 191.34 3.96 191 6 C190.91501089 7.47731073 190.86956975 8.95775656 190.875 10.4375 C190.87242187 11.13746094 190.86984375 11.83742188 190.8671875 12.55859375 C191.03936501 15.72362158 191.55173565 18.86214957 192 22 C128.64 22 65.28 22 0 22 C0 14.74 0 7.48 0 0 Z " fill="#FFFFFF" transform="translate(213,395)"/>
<path d="M0 0 C7.59 0 15.18 0 23 0 C23 7.59 23 15.18 23 23 C25.64 23 28.28 23 31 23 C31 15.41 31 7.82 31 0 C38.59 0 46.18 0 54 0 C54 9.9 54 19.8 54 30 C49.05 30 44.1 30 39 30 C39 32.97 39 35.94 39 39 C43.95 39 48.9 39 54 39 C54 51.54 54 64.08 54 77 C46.41 77 38.82 77 31 77 C31 69.41 31 61.82 31 54 C28.36 54 25.72 54 23 54 C23 61.59 23 69.18 23 77 C15.41 77 7.82 77 0 77 C0 51.59 0 26.18 0 0 Z " fill="#020202" transform="translate(267,282)"/>
<path d="M0 0 C65.34 0 130.68 0 198 0 C198 4.95 198 9.9 198 15 C132.66 15 67.32 15 0 15 C0 10.05 0 5.1 0 0 Z " fill="#FFFFFF" transform="translate(213,421)"/>
<path d="M0 0 C7.59 0 15.18 0 23 0 C23 25.41 23 50.82 23 77 C15.41 77 7.82 77 0 77 C0 51.59 0 26.18 0 0 Z " fill="#000000" transform="translate(233,282)"/>
<path d="M0 0 C7.26 0 14.52 0 22 0 C22 25.41 22 50.82 22 77 C14.74 77 7.48 77 0 77 C0 51.59 0 26.18 0 0 Z " fill="#000000" transform="translate(333,282)"/>
<path d="M0 0 C1.33248779 0.00374634 1.33248779 0.00374634 2.69189453 0.00756836 C3.82224121 0.01667236 4.95258789 0.02577637 6.1171875 0.03515625 C11.5003125 0.06609375 11.5003125 0.06609375 16.9921875 0.09765625 C16.9921875 7.35765625 16.9921875 14.61765625 16.9921875 22.09765625 C-3.20784317 22.57482233 -3.20784317 22.57482233 -9.0078125 19.09765625 C-11.40244213 16.70302662 -11.96361547 15.27413901 -12.08984375 11.9140625 C-11.85340294 8.02237458 -11.49259164 5.72317772 -9.0703125 2.59765625 C-5.80766753 0.22482354 -3.99507081 -0.02296018 0 0 Z " fill="#FFFFFF" transform="translate(130.0078125,394.90234375)"/>
</svg>
