<?xml version="1.0" encoding="UTF-8"?>
<svg version="1.1" xmlns="http://www.w3.org/2000/svg" width="500" height="500">
<path d="M0 0 C1.68789622 -0.00570969 3.37578859 -0.01267625 5.06367493 -0.02079773 C9.62784068 -0.03867914 14.19181365 -0.03757011 18.75600386 -0.03185534 C22.57538208 -0.02875591 26.39472367 -0.03486439 30.21409667 -0.04089409 C39.22951365 -0.05492153 48.24483585 -0.05339315 57.26025391 -0.04199219 C66.54035616 -0.03051534 75.82016927 -0.04458342 85.10023344 -0.07138866 C93.08695323 -0.0935887 101.07358255 -0.10017328 109.06033099 -0.09431225 C113.8220027 -0.09095144 118.58348916 -0.09329915 123.34513474 -0.11056328 C127.82523034 -0.12609889 132.3048997 -0.12200398 136.78497887 -0.10325813 C138.42194859 -0.09959035 140.05895037 -0.10262746 141.69589043 -0.11314392 C161.9949131 -0.23352083 161.9949131 -0.23352083 169.49663353 6.35912418 C175.61592846 12.75174521 176.57100878 19.0500362 176.51248169 27.59152222 C176.51419054 28.50728094 176.51589939 29.42303967 176.51766002 30.36654866 C176.5209497 33.42974855 176.50995973 36.49272855 176.49902344 39.5559082 C176.49845921 41.75380956 176.49877611 43.95171129 176.49990845 46.14961243 C176.50048251 52.11397596 176.48871938 58.07825912 176.47476053 64.04260397 C176.46226224 70.27661832 176.46108338 76.51063448 176.45870972 82.74465942 C176.45319881 93.20730962 176.44070441 103.6699323 176.42285156 114.13256836 C176.40448476 124.90763197 176.39033218 135.68268756 176.38183594 146.45776367 C176.38131049 147.12228734 176.38078504 147.78681102 176.38024367 148.47147177 C176.37763354 151.80529581 176.37511065 155.13911989 176.37261987 158.47294402 C176.35171196 186.11666746 176.31653087 213.76035802 176.27197266 241.40405273 C175.32921667 241.40644109 174.38646069 241.40882944 173.41513634 241.41129017 C150.48034486 241.47007352 127.54565854 241.54594915 104.61098289 241.63976765 C93.5199618 241.68474141 82.42897293 241.72415247 71.33789062 241.75048828 C61.67138868 241.77345551 52.00498857 241.80683933 42.33856738 241.85275429 C37.21983045 241.87670364 32.10119449 241.89542123 26.9824028 241.90166664 C22.16431198 241.90770971 17.34647956 241.92768153 12.52848434 241.95832825 C10.76043491 241.96712093 8.99235172 241.97082851 7.22428131 241.9690609 C4.80883923 241.96740855 2.39418526 241.9841035 -0.02114868 242.00532532 C-1.06883484 241.99805395 -1.06883484 241.99805395 -2.13768637 241.99063569 C-6.70123249 242.05673456 -9.88797217 242.92540621 -13.72802734 245.40405273 C-15.35547471 249.06580932 -15.9765496 251.2857026 -15.10302734 255.21655273 C-13.4515814 257.84385309 -12.6090376 258.30584585 -9.72802734 259.40405273 C-7.31964979 259.69284009 -4.89992266 259.89450299 -2.47802734 260.02905273 C-1.21474609 260.10381836 0.04853516 260.17858398 1.35009766 260.25561523 C2.31431641 260.30459961 3.27853516 260.35358398 4.27197266 260.40405273 C4.27197266 264.03405273 4.27197266 267.66405273 4.27197266 271.40405273 C0.7711262 271.51269969 -2.72629906 271.59168098 -6.22802734 271.65405273 C-7.21029297 271.68756836 -8.19255859 271.72108398 -9.20458984 271.75561523 C-16.26743056 271.84978644 -21.93100216 270.93108078 -27.24902344 265.99121094 C-32.64178079 259.91876779 -33.02574102 254.49554274 -33.02668762 246.75201416 C-33.03459672 245.77403956 -33.04250582 244.79606496 -33.05065459 243.78845477 C-33.07470198 240.50828891 -33.08458324 237.22823489 -33.09448242 233.94799805 C-33.10869075 231.59735623 -33.12372562 229.24671929 -33.13952637 226.89608765 C-33.17970675 220.50757781 -33.20716186 214.11907245 -33.23153901 207.73048496 C-33.25560845 201.72302422 -33.28697367 195.71560216 -33.31754657 189.70817193 C-33.38128337 177.07978374 -33.43206326 164.45136754 -33.47896709 151.8229073 C-33.52224979 140.27999803 -33.58201296 128.73724298 -33.64956216 117.19445243 C-33.71881141 105.33481081 -33.77676126 93.47516266 -33.82260054 81.61540675 C-33.84852608 74.96015622 -33.87917626 68.30499021 -33.92115211 61.64981842 C-33.96015342 55.38884436 -33.98446051 49.12798161 -33.99753571 42.8669014 C-34.00477929 40.57114793 -34.01718675 38.27540397 -34.03518486 35.97970963 C-34.05896736 32.84100713 -34.0639372 29.70280615 -34.06428528 26.56402588 C-34.07555051 25.65982446 -34.08681574 24.75562304 -34.09842235 23.82402158 C-34.06869243 17.02984339 -33.27300336 10.24843769 -28.60302734 5.02905273 C-19.33033997 -0.21203143 -10.3071999 -0.03153937 0 0 Z " fill="#F8F8F8" transform="translate(178.72802734375,99.595947265625)"/>
<path d="M0 0 C12.54 0 25.08 0 38 0 C38 2.31 38 4.62 38 7 C45.59 7 53.18 7 61 7 C61 14.59 61 22.18 61 30 C63.31 30 65.62 30 68 30 C68 42.54 68 55.08 68 68 C65.69 68 63.38 68 61 68 C61 70.64 61 73.28 61 76 C58.36 76 55.72 76 53 76 C53 73.36 53 70.72 53 68 C50.36 68 47.72 68 45 68 C45 58.1 45 48.2 45 38 C42.69 38 40.38 38 38 38 C38 40.31 38 42.62 38 45 C35.36 45 32.72 45 30 45 C30 47.64 30 50.28 30 53 C27.69 53 25.38 53 23 53 C23 55.64 23 58.28 23 61 C20.36 61 17.72 61 15 61 C15 63.31 15 65.62 15 68 C12.36 68 9.72 68 7 68 C7 70.64 7 73.28 7 76 C4.69 76 2.38 76 0 76 C0 78.31 0 80.62 0 83 C-2.64 83 -5.28 83 -8 83 C-8 85.64 -8 88.28 -8 91 C-10.31 91 -12.62 91 -15 91 C-15 93.31 -15 95.62 -15 98 C-19.95 98 -24.9 98 -30 98 C-30 93.05 -30 88.1 -30 83 C-27.69 83 -25.38 83 -23 83 C-23 80.69 -23 78.38 -23 76 C-20.36 76 -17.72 76 -15 76 C-15 73.36 -15 70.72 -15 68 C-12.69 68 -10.38 68 -8 68 C-8 65.36 -8 62.72 -8 60 C-5.36 60 -2.72 60 0 60 C0 57.69 0 55.38 0 53 C2.31 53 4.62 53 7 53 C7 50.36 7 47.72 7 45 C9.64 45 12.28 45 15 45 C15 42.69 15 40.38 15 38 C17.64 38 20.28 38 23 38 C23 35.36 23 32.72 23 30 C25.31 30 27.62 30 30 30 C30 27.69 30 25.38 30 23 C20.1 23 10.2 23 0 23 C0 20.36 0 17.72 0 15 C-2.64 15 -5.28 15 -8 15 C-8 12.36 -8 9.72 -8 7 C-5.36 7 -2.72 7 0 7 C0 4.69 0 2.38 0 0 Z " fill="#070707" transform="translate(235,144)"/>
<path d="M0 0 C40.92 0 81.84 0 124 0 C124 3.3 124 6.6 124 10 C124.495 12.475 124.495 12.475 125 15 C83.75 15 42.5 15 0 15 C0 10.05 0 5.1 0 0 Z " fill="#FFFFFF" transform="translate(226,343)"/>
<path d="M0 0 C12.54 0 25.08 0 38 0 C38 18.81 38 37.62 38 57 C34.54740307 55.27370154 32.92761399 54.16774527 30.328125 51.5234375 C29.33232422 50.51796875 29.33232422 50.51796875 28.31640625 49.4921875 C27.63449219 48.79351562 26.95257813 48.09484375 26.25 47.375 C25.55261719 46.66859375 24.85523438 45.9621875 24.13671875 45.234375 C22.41987512 43.49401297 20.70788168 41.74915019 19 40 C14.48888853 43.76618779 10.22196074 47.66359902 6.125 51.875 C4.43675624 53.60814386 2.73516211 55.31287006 1 57 C0.67 57 0.34 57 0 57 C0 38.19 0 19.38 0 0 Z " fill="#FFFFFF" transform="translate(186,343)"/>
<path d="M0 0 C4.95 0 9.9 0 15 0 C15 13.53 15 27.06 15 41 C13.35 41 11.7 41 10 41 C10 44.3 10 47.6 10 51 C5.05 51 0.1 51 -5 51 C-5 45.72 -5 40.44 -5 35 C-8.63 35 -12.26 35 -16 35 C-16 39.95 -16 44.9 -16 50 C-20.62 50 -25.24 50 -30 50 C-30 46.7 -30 43.4 -30 40 C-31.65 40 -33.3 40 -35 40 C-35 27.13 -35 14.26 -35 1 C-30.38 1 -25.76 1 -21 1 C-21 9.25 -21 17.5 -21 26 C-19.02 26 -17.04 26 -15 26 C-15 22.7 -15 19.4 -15 16 C-12.03 16 -9.06 16 -6 16 C-6 19.3 -6 22.6 -6 26 C-4.02 26 -2.04 26 0 26 C0 17.42 0 8.84 0 0 Z " fill="#050505" transform="translate(217,270)"/>
<path d="M0 0 C4.95 0 9.9 0 15 0 C15 4.95 15 9.9 15 15 C16.65 15 18.3 15 20 15 C20 10.05 20 5.1 20 0 C24.95 0 29.9 0 35 0 C35 6.27 35 12.54 35 19 C31.7 19 28.4 19 25 19 C25 20.98 25 22.96 25 25 C28.3 25 31.6 25 35 25 C35 33.25 35 41.5 35 50 C30.05 50 25.1 50 20 50 C20 45.05 20 40.1 20 35 C18.35 35 16.7 35 15 35 C15 39.95 15 44.9 15 50 C10.05 50 5.1 50 0 50 C0 33.5 0 17 0 0 Z " fill="#060606" transform="translate(261,271)"/>
<path d="M0 0 C42.57 0 85.14 0 129 0 C129 3.63 129 7.26 129 11 C86.43 11 43.86 11 0 11 C0 7.37 0 3.74 0 0 Z " fill="#FFFFFF" transform="translate(226,360)"/>
<path d="M0 0 C4.95 0 9.9 0 15 0 C15 16.5 15 33 15 50 C10.05 50 5.1 50 0 50 C0 33.5 0 17 0 0 Z " fill="#050505" transform="translate(239,271)"/>
<path d="M0 0 C4.62 0 9.24 0 14 0 C14 16.17 14 32.34 14 49 C9.38 49 4.76 49 0 49 C0 32.83 0 16.66 0 0 Z " fill="#000000" transform="translate(304,271)"/>
<path d="M0 0 C2.8153125 0.061875 2.8153125 0.061875 5.6875 0.125 C5.6875 5.075 5.6875 10.025 5.6875 15.125 C-7.86791641 15.53577019 -7.86791641 15.53577019 -12.3125 12.125 C-13.4844255 9.15612206 -13.40891114 7.53956789 -12.6875 4.4375 C-9.8741646 -0.29401863 -5.06709248 -0.11136467 0 0 Z " fill="#FFFFFF" transform="translate(177.3125,342.875)"/>
<path d="M0 0 C2.64 0 5.28 0 8 0 C8 2.64 8 5.28 8 8 C5.36 8 2.72 8 0 8 C0 5.36 0 2.72 0 0 Z " fill="#161616" transform="translate(227,151)"/>
<path d="M0 0 C1.134375 0.020625 2.26875 0.04125 3.4375 0.0625 C3.4375 2.7025 3.4375 5.3425 3.4375 8.0625 C0.7975 8.0625 -1.8425 8.0625 -4.5625 8.0625 C-4.60491723 5.72955225 -4.60342937 3.39547433 -4.5625 1.0625 C-3.5625 0.0625 -3.5625 0.0625 0 0 Z " fill="#181818" transform="translate(292.5625,211.9375)"/>
</svg>
